<?xml version="1.0" encoding="utf-8"?>
<!-- Generator: Adobe Illustrator 23.0.0, SVG Export Plug-In . SVG Version: 6.00 Build 0)  -->
<svg version="1.1" id="Calque_1" xmlns="http://www.w3.org/2000/svg" xmlns:xlink="http://www.w3.org/1999/xlink" x="0px" y="0px"
	 viewBox="0 0 24 24" style="enable-background:new 0 0 24 24;" xml:space="preserve">
<style type="text/css">
	.st0{fill:#BCDCBD;}
</style>
<g id="surface10846528">
	<path class="st0" d="M12,2C6.5,2,2,6.5,2,12s4.5,10,10,10s10-4.5,10-10S17.5,2,12,2z M12,4c4.4,0,8,3.6,8,8s-3.6,8-8,8
		c-0.7,0-1.4-0.1-2.1-0.3c0.2-0.4,0.4-0.9,0.5-1.3c0.1-0.4,0.6-2.2,0.6-2.2c0.3,0.6,1.2,1.1,2.2,1.1c2.8,0,4.9-2.6,4.9-5.8
		C18,8.3,15.5,6,12.2,6C8.2,6,6,8.7,6,11.7c0,1.4,0.7,3.1,1.9,3.6c0.2,0.1,0.3,0,0.3-0.1c0-0.1,0.2-0.8,0.3-1.1c0-0.1,0-0.2-0.1-0.3
		c-0.4-0.5-0.7-1.3-0.7-2.1c0-2.1,1.6-4.1,4.2-4.1c2.3,0,3.9,1.6,3.9,3.8c0,2.5-1.3,4.3-3,4.3c-0.9,0-1.6-0.8-1.4-1.7
		c0.3-1.1,0.8-2.3,0.8-3.1c0-0.7-0.4-1.3-1.2-1.3c-0.9,0-1.7,1-1.7,2.3c0,0.8,0.3,1.4,0.3,1.4S8.8,17.2,8.6,18
		c-0.1,0.4-0.1,0.8-0.1,1.2C5.8,17.9,4,15.2,4,12C4,7.6,7.6,4,12,4z"/>
</g>
</svg>
