<?xml version="1.0" encoding="UTF-8"?>
<svg xmlns="http://www.w3.org/2000/svg" xmlns:xlink="http://www.w3.org/1999/xlink" viewBox="0 0 192 192" width="192px" height="192px">
<g id="surface10855598">
<path style=" stroke:none;fill-rule:nonzero;fill:rgb(5.882353%,40.784314%,37.64706%);fill-opacity:1;" d="M 136 24 L 56 24 C 38.328125 24 24 38.328125 24 56 L 24 136 C 24 153.671875 38.328125 168 56 168 L 100.96875 168 L 100.96875 112.3125 L 82.222656 112.3125 L 82.222656 90.511719 L 100.96875 90.511719 L 100.96875 74.472656 C 100.96875 55.878906 112.335938 45.742188 128.929688 45.742188 C 134.519531 45.726562 140.105469 46.015625 145.664062 46.585938 L 145.664062 66.023438 L 134.238281 66.023438 C 125.199219 66.023438 123.441406 70.296875 123.441406 76.601562 L 123.441406 90.480469 L 145.039062 90.480469 L 142.230469 112.28125 L 123.3125 112.28125 L 123.3125 168 L 136 168 C 153.671875 168 168 153.671875 168 136 L 168 56 C 168 38.328125 153.671875 24 136 24 Z M 136 24 "/>
</g>
</svg>
