<?xml version="1.0" encoding="utf-8"?>
<!-- Generator: Adobe Illustrator 23.0.0, SVG Export Plug-In . SVG Version: 6.00 Build 0)  -->
<svg version="1.1" id="Calque_1" xmlns="http://www.w3.org/2000/svg" xmlns:xlink="http://www.w3.org/1999/xlink" x="0px" y="0px"
	 viewBox="0 0 192 192" style="enable-background:new 0 0 192 192;" xml:space="preserve">
<style type="text/css">
	.st0{fill:#BCDCBD;}
</style>
<g id="surface10850597">
	<path class="st0" d="M64,24c-22.1,0-40,17.9-40,40v64c0,22.1,17.9,40,40,40h64c22.1,0,40-17.9,40-40V64c0-22.1-17.9-40-40-40H64z
		 M64,40h64c13.2,0,24,10.8,24,24v64c0,13.2-10.8,24-24,24H64c-13.2,0-24-10.8-24-24V64C40,50.8,50.8,40,64,40z M136,48
		c-4.4,0-8,3.6-8,8s3.6,8,8,8s8-3.6,8-8S140.4,48,136,48z M96,56c-22.1,0-40,17.9-40,40s17.9,40,40,40s40-17.9,40-40S118.1,56,96,56
		z M96,72c13.2,0,24,10.8,24,24s-10.8,24-24,24s-24-10.8-24-24S82.8,72,96,72z"/>
</g>
</svg>
