<?xml version="1.0" encoding="utf-8"?>
<!-- Generator: Adobe Illustrator 23.0.0, SVG Export Plug-In . SVG Version: 6.00 Build 0)  -->
<svg version="1.1" id="Calque_1" xmlns="http://www.w3.org/2000/svg" xmlns:xlink="http://www.w3.org/1999/xlink" x="0px" y="0px"
	 viewBox="0 0 250 250" style="enable-background:new 0 0 250 250;" xml:space="preserve">
<style type="text/css">
	.st0{fill:#BCDCBD;}
</style>
<g id="surface10848308">
	<path class="st0" d="M250.3,52.2c-9.2,4.1-19.1,6.9-29.6,8.1c10.6-6.4,18.8-16.4,22.6-28.4c-9.9,5.9-21,10.2-32.7,12.5
		c-9.4-10-22.7-16.2-37.5-16.2c-28.4,0-51.4,23-51.4,51.4c0,4,0.5,7.9,1.3,11.7c-42.7-2.1-80.6-22.6-106-53.7
		c-4.4,7.6-7,16.4-7,25.9c0,17.8,9.1,33.6,22.9,42.8c-8.4-0.3-16.4-2.6-23.3-6.4c0,0.2,0,0.4,0,0.6c0,24.9,17.7,45.7,41.2,50.4
		c-4.3,1.2-8.8,1.8-13.5,1.8c-3.3,0-6.5-0.3-9.7-0.9c6.6,20.4,25.5,35.3,48,35.7c-17.6,13.8-39.7,22-63.8,22
		c-4.2,0-8.2-0.2-12.2-0.7c22.7,14.6,49.8,23.1,78.8,23.1c94.6,0,146.3-78.3,146.3-146.3c0-2.2-0.1-4.5-0.1-6.7
		C234.7,71.6,243.4,62.5,250.3,52.2z"/>
</g>
</svg>
