<?xml version="1.0" encoding="utf-8"?>
<!-- Generator: Adobe Illustrator 23.0.0, SVG Export Plug-In . SVG Version: 6.00 Build 0)  -->
<svg version="1.1" id="Calque_1" xmlns="http://www.w3.org/2000/svg" xmlns:xlink="http://www.w3.org/1999/xlink" x="0px" y="0px"
	 viewBox="0 0 192 192" style="enable-background:new 0 0 192 192;" xml:space="preserve">
<style type="text/css">
	.st0{fill:#BCDCBD;}
</style>
<g id="surface10855598">
	<path class="st0" d="M136,24H56c-17.7,0-32,14.3-32,32v80c0,17.7,14.3,32,32,32h45v-55.7H82.2V90.5H101v-16
		c0-18.6,11.4-28.7,28-28.7c5.6,0,11.2,0.3,16.7,0.8V66h-11.4c-9,0-10.8,4.3-10.8,10.6v13.9H145l-2.8,21.8h-18.9V168H136
		c17.7,0,32-14.3,32-32V56C168,38.3,153.7,24,136,24z"/>
</g>
</svg>
