<?xml version="1.0"?>
<svg xmlns="http://www.w3.org/2000/svg" xmlns:xlink="http://www.w3.org/1999/xlink" xmlns:svgjs="http://svgjs.com/svgjs" version="1.1" width="512" height="512" x="0" y="0" viewBox="0 0 512 512" style="enable-background:new 0 0 512 512" xml:space="preserve" class=""><g><path xmlns="http://www.w3.org/2000/svg" d="m416.800781 256-22.621093 22.625 63.199218 63.199219h-97.824218c-18.195313.054687-34.835938-10.230469-42.929688-26.527344l-42.734375-85.472656 42.734375-85.472657c8.09375-16.292968 24.734375-26.582031 42.929688-26.527343h97.824218l-63.199218 63.199219 22.621093 22.625 90.515625-90.511719c6.246094-6.25 6.246094-16.378907 0-22.625l-90.515625-90.511719-22.621093 22.625 63.199218 63.199219h-97.824218c-30.328126-.097657-58.078126 17.054687-71.554688 44.226562l-32 64-32-64c-13.472656-27.171875-41.222656-44.324219-71.550781-44.226562h-152.449219v32h152.449219c18.191406-.050781 34.835937 10.234375 42.929687 26.527343l42.734375 85.472657-42.734375 85.476562c-8.09375 16.292969-24.738281 26.578125-42.929687 26.527344h-152.449219v32h152.449219c30.328125.097656 58.078125-17.054687 71.550781-44.226563l32-64 32 64c13.476562 27.171876 41.222656 44.324219 71.554688 44.226563h97.824218l-63.199218 63.199219 22.621093 22.625 90.515625-90.515625c6.246094-6.246094 6.246094-16.375 0-22.621094zm0 0" fill="#0f6860" data-original="#ff7956" style="" class=""/></g></svg>
